<svg xmlns="http://www.w3.org/2000/svg" width="32" height="32" viewBox="0 0 32 32">
  <g id="twitter" transform="translate(0.178 0.468)">
    <rect id="Rectangle_507" data-name="Rectangle 507" width="32" height="32" transform="translate(-0.178 -0.468)" fill="none"/>
    <path id="twitter-brands" d="M24.225,53.547c.017.24.017.48.017.72A15.636,15.636,0,0,1,8.5,70.011,15.638,15.638,0,0,1,0,67.527a11.448,11.448,0,0,0,1.336.069,11.082,11.082,0,0,0,6.87-2.364,5.543,5.543,0,0,1-5.174-3.838,6.977,6.977,0,0,0,1.045.086,5.854,5.854,0,0,0,1.456-.188A5.534,5.534,0,0,1,1.1,55.86v-.069a5.573,5.573,0,0,0,2.5.7,5.542,5.542,0,0,1-1.713-7.4,15.729,15.729,0,0,0,11.41,5.791,6.247,6.247,0,0,1-.137-1.268,5.539,5.539,0,0,1,9.577-3.786,10.894,10.894,0,0,0,3.512-1.336,5.519,5.519,0,0,1-2.433,3.049A11.094,11.094,0,0,0,27,50.686,11.9,11.9,0,0,1,24.225,53.547Z" transform="translate(2.822 -42.55)" fill="#8b8b8b"/>
  </g>
</svg>
