<?xml version="1.0" encoding="utf-8"?>
<!-- Generator: Adobe Illustrator 23.1.1, SVG Export Plug-In . SVG Version: 6.00 Build 0)  -->
<svg version="1.1" id="圖層_1" xmlns="http://www.w3.org/2000/svg" xmlns:xlink="http://www.w3.org/1999/xlink" x="0px" y="0px"
	 viewBox="0 0 500 500" style="enable-background:new 0 0 500 500;" xml:space="preserve">
<style type="text/css">
	.st0{fill:#524057;}
	.st1{fill:#392F3B;}
	.st2{fill:#46374A;}
	.st3{fill:#705F8E;}
	.st4{fill:#F62F48;}
	.st5{fill:#705478;}
	.st6{clip-path:url(#SVGID_2_);}
	.st7{fill:#7E5488;}
	.st8{fill:#A970B8;}
	.st9{fill:#6B4775;}
	.st10{fill:#54385A;}
	.st11{fill:#3A263F;}
</style>
<g>
	<path class="st0" d="M249.99,250l-1.01,220.35c-40.23-0.2-77.73-11.15-110.07-30.04c-33.33-19.53-61.03-47.54-80.24-81.06
		c-18.61-32.49-29.24-70.19-29.03-110.28c0.2-40.23,11.15-77.73,30.06-110.07L249.99,250z"/>
	<path class="st1" d="M249.99,250l109.27,191.33c-32.49,18.61-70.19,29.24-110.28,29.03L249.99,250z"/>
	<path class="st1" d="M249.99,250l109.24,191.34c33.54-19.2,61.54-46.92,81.05-80.26L249.99,250L249.99,250z"/>
	<path class="st2" d="M470.36,251.03c-0.2,40.21-11.15,77.73-30.06,110.06L249.99,250L470.36,251.03z"/>
	<path class="st3" d="M140.74,58.65c-33.52,19.23-61.54,46.93-81.05,80.24L249.99,250l0.87-1.51l-1.73-218.8
		C209.73,29.82,172.71,40.35,140.74,58.65z"/>
	<polygon class="st4" points="253.13,244.57 252.19,248.74 249.99,250 	"/>
	<path class="st5" d="M441.37,140.71c18.59,32.56,29.14,70.22,28.96,110.35L250.01,250l2.14-1.29l1.03-4.12l-2.37,3.94l-1.75-218.82
		c0.7-0.08,1.36-0.07,2.01-0.05c16.73,0.03,33.08,2.08,48.73,5.66c21.83,5.13,42.44,13.47,61.26,24.38
		C394.45,79.22,422.07,107.19,441.37,140.71z"/>
</g>
</svg>
