<svg id="圖層_1" data-name="圖層 1" xmlns="http://www.w3.org/2000/svg" viewBox="0 0 472 86"><defs><style>.cls-1{fill:#cb6519;}.cls-2{fill:#0e639b;}.cls-3{fill:#fff;}</style></defs><path class="cls-1" d="M27.67,42.64a12.91,12.91,0,0,1,12.9-12.9,12.74,12.74,0,0,1,7.07,2.12c.33-.59.5-.93.5-.93S29,13.9,29,13.92c-4.79,6.85-21.8,23.87-12.34,36.16a9.34,9.34,0,0,0,2.94,2.37,13.33,13.33,0,0,0,7.78,1,16.67,16.67,0,0,0,4.19-1.52A12.88,12.88,0,0,1,27.67,42.64Z"/><path class="cls-2" d="M74.74,46.21l-4.39-4L73.4,36,69,32l-3,6.21-4.39-4-3,6.21,4.39,4h0l-3,6.21-4.4-4,3-6.21-8.64-7.91-4,7.36c-5.22,9.69-12.72,14.71-19.2,15.52a14.14,14.14,0,0,1-11.27-3.45A31.22,31.22,0,0,0,25.55,66.21c14.23,10.88,34.39,8.35,42.26-6.33Z"/><polygon class="cls-2" points="82.2 32.37 79 38.89 74.38 34.66 77.58 28.14 82.2 32.37"/><polygon class="cls-2" points="61.08 24.34 57.73 31.18 52.88 26.74 56.24 19.91 61.08 24.34"/><polygon class="cls-2" points="69.27 21.94 65.92 28.78 61.07 24.34 64.43 17.51 69.27 21.94"/><path class="cls-3" d="M100.37,32.09H97.89v-2h14v2H109V67.24h-2V59.55l-8.38,3.5-.87-1.84,2.61-1ZM107,39V32.09h-4.63V39Zm0,9.38V41h-4.63v7.38Zm0,9V50.34h-4.63v9.08l.7-.3Zm4.72-10.48-.48-2,2.31-.26,3.14-4.15a32.26,32.26,0,0,0-5.63-5.59l1.18-1.61a5.61,5.61,0,0,1,1.57,1.26c1.14-2.18,2.27-4.63,3.32-7.24l1.79.91a70,70,0,0,1-3.75,7.69l2.66,2.88a33.32,33.32,0,0,0,2.84-6.25l1.92.53c-1,3.58-3.15,7.33-6.46,11.26l5.15-.61-1.14-2.4,1.88-.79a28.15,28.15,0,0,1,2.44,6.16l-1.92.65-.56-1.7Zm2.44,13.54a1.67,1.67,0,0,1-.83-.61,4.59,4.59,0,0,1-.52-2.54V49.86h2V58l.26.22,4.94-.7V48.94h2V59.38a6.23,6.23,0,0,1-.4,2.14c-.87,2.31-3.4,4.23-7.46,5.72l-1-1.88a13.66,13.66,0,0,0,5.11-2.4,4.67,4.67,0,0,0,1.7-3.41A52.59,52.59,0,0,1,114.17,60.34Zm11-14.58-.61-1.92,2.09-.31,2.58-3.36a31.73,31.73,0,0,0-5.63-5.11l1.09-1.66a9.36,9.36,0,0,1,1.66,1.22A61.25,61.25,0,0,0,130,27.73l1.74,1a63.08,63.08,0,0,1-4.06,7.2l2.71,2.58a29,29,0,0,0,3.27-6.72l1.92.56c-.91,3.23-3.05,6.86-6.28,10.7l5.15-.87-.57-1.71,1.92-.61A31.64,31.64,0,0,1,137.57,46l-2,.52-.57-2.4Zm8.6,12.79c.31,0,.44-.13.44-.39V49.47h2V60c0,.35-.18.53-.57.53h-6.94v6.5h-2V48.94h2v9.61Z"/><path class="cls-3" d="M145.87,41.48l-1.22-1.88a54.77,54.77,0,0,0,19.08-12.35h1.57c6.24,5.58,12.53,9.56,18.73,11.83L182.81,41a47,47,0,0,1-9.61-5,59,59,0,0,1-8.69-6.55A49.22,49.22,0,0,1,145.87,41.48ZM152.6,66.8h-2V49.16c0-.43.22-.65.7-.65h26.5c.48,0,.74.22.74.65V66.8h-2v-3H152.6ZM177,40.3v2H151.5v-2Zm-.44,21.52v-11c0-.18-.09-.26-.31-.26H152.9c-.22,0-.35.08-.3.3v11Z"/><path class="cls-3" d="M209.44,38.6v2H191v-2h8.12V33.44h-7.25v-2h7.25V27.77h2v3.67h7.16v2h-7.16V38.6ZM191.15,59.73v-2h7.95v-5.5H191v-2h11.13a63.4,63.4,0,0,0,3.62-7.9l1.79.87-3.18,7h4.93v2h-8.16v5.5h8.16v2h-8.16v6.81h-2V59.73ZM194,42.61a32.51,32.51,0,0,1,3.23,5.9l-1.79.91a39.28,39.28,0,0,0-3.18-5.76Zm19.17,1.57V66.8h-2V29.3c0-.26.13-.4.44-.4h16.19a1.34,1.34,0,0,1,.92.18c.22.13.31.52.31,1.18-.31,5.63-1,8.69-1.92,9.21q-2.56,1.64-8.74-.66l.35-2.13a18.9,18.9,0,0,0,4,1.13c1.52.22,2.49.13,2.92-.26a5.57,5.57,0,0,0,.83-2.18c.48-2.67.61-4.15.39-4.41l-.21-.05H213.5c-.21,0-.3.05-.3.26v11h14.36l1.18.69c-.7,6.82-2.49,12.36-5.28,16.6l.74.74a32.46,32.46,0,0,0,5.89,5.32l-1.61,1.27a43.66,43.66,0,0,1-6.24-5.59,35.54,35.54,0,0,1-6.2,5.63l-1.62-1.31A27.89,27.89,0,0,0,221,59.68a24.56,24.56,0,0,1-5.15-15.5Zm9,13.67c2.27-3.27,3.76-7.86,4.46-13.67h-8.87a23.43,23.43,0,0,0,2.32,10.44A28.6,28.6,0,0,0,222.19,57.85Z"/><path class="cls-3" d="M238.39,47.33l-1.52-1.44a44.26,44.26,0,0,0,4.93-18.51l2,.26a51.82,51.82,0,0,1-1.4,9.47V66.89h-2V43.18A30.33,30.33,0,0,1,238.39,47.33Zm13.19-2.8h-5.24l-.74-1,5.15-12.1h-5v-2h6.73l.83,1.14-5.2,12h5c.43-.05.65.17.65.61v.08a40.53,40.53,0,0,1-3,15.2l.17.26c2.14,3,5.86,4.58,11,4.67h14.36l-.52,2H262.63a40.63,40.63,0,0,1-5.64-.57,10.36,10.36,0,0,1-7.07-4.63,41.55,41.55,0,0,1-3.75,6.25l-1.84-1.53a43.44,43.44,0,0,0,4.19-6.72,32.79,32.79,0,0,1-3.66-9.43l1.83-.44a44.64,44.64,0,0,0,2.71,7.81A33.19,33.19,0,0,0,251.58,44.53Zm3.75,12.27v-2h8.3V51h-7.42V49h7.42V44.71h-7.55v-2h7.55V38.38h-8.3v-2h8.3V32.09h-7.55v-2h7.55V27.94h2v2.14h7.86a.57.57,0,0,1,.65.61v5.68h1.35v2h-1.35v5.67a.58.58,0,0,1-.65.66h-7.86V49h8.69v2h-8.69v3.79h9.52v2h-9.52v5h-2v-5Zm10.31-20.43h6.5V32.44c0-.22-.13-.35-.39-.35h-6.11Zm0,6.33h6.11a.34.34,0,0,0,.39-.39V38.38h-6.5Z"/><path class="cls-3" d="M305.59,64.22a2.31,2.31,0,0,1-1,2c-1.26.88-3.84.74-7.64-.39v-2.1c3.06,1.05,5.2,1.31,6.2.79a1,1,0,0,0,.48-.83V50h-13V48h13V44H287.87v4a45.87,45.87,0,0,1-3.19,17.9l-1.92-.66a39,39,0,0,0,2.49-8.64,67.41,67.41,0,0,0,.61-9.26V31c0-.35.17-.53.57-.53h16.15V26.76h2v3.67H322.4v2H305.59v3.62h13c.44,0,.66.22.66.57V42h4.06v2h-4.06v5.33a.58.58,0,0,1-.66.65H306.07a35.35,35.35,0,0,0,3.32,5.37c2.75,3.67,7,6.51,12.79,8.56l-1.13,1.74-5-2.09a26.61,26.61,0,0,1-10.48-10.22Zm-2-31.78H288.13a.23.23,0,0,0-.26.26V42h15.71V38.07H290.92v-2h12.66Zm-2.79,26.24a70.59,70.59,0,0,1-10.92,5.85l-1.13-1.7a51.47,51.47,0,0,0,10.78-5.72Zm-8.56-7.34a33.62,33.62,0,0,1,4.37,4l-1.49,1.31a49,49,0,0,0-4.23-3.88ZM305.59,42h11.66V38.38c0-.18-.13-.31-.39-.31H305.59Zm0,6h11.27a.34.34,0,0,0,.39-.39V44H305.59Zm15.24,4.15a35.45,35.45,0,0,1-6.11,4.76l-1.18-1.62a36.81,36.81,0,0,0,6-4.71Z"/><path class="cls-3" d="M332.45,47.76V46.11h16.24v-4H333.58c-.17,0-.26-.08-.26-.3V35.28a.23.23,0,0,1,.26-.26h15.11V31.31H329.83V29.47h18.86v-2h2v2h17.72v1.84H350.7V35h13.84c.21,0,.3.08.3.26v6.55c0,.22-.09.3-.3.3H350.7v4h13.7c.4,0,.62.17.62.56v5.24H369v1.66H365v5.2a.56.56,0,0,1-.62.61H350.7V63.7a2.23,2.23,0,0,1-1.1,2c-1.7,1.18-5.06,1.05-10-.35v-2.1c4.27,1.18,7.16,1.44,8.6.75a1,1,0,0,0,.48-.79V59.38H332.8V57.72h15.89V53.57h-19V51.91h19V47.76Zm16.24-11.08H335.37v3.79h13.32Zm2,3.79h12.05l.08-.13V36.76l-.08-.08H350.7Zm0,11.44H363V48.07c0-.22-.13-.31-.35-.31h-12Zm0,5.81h12a.32.32,0,0,0,.35-.35v-3.8H350.7Z"/><path class="cls-3" d="M396.63,67.24h-2V56.06c-6.37,4.41-12.22,7.25-17.51,8.25l-.87-1.88a43.55,43.55,0,0,0,17.07-7.85H377v-2h17.64V49H379V47h15.58V43.36H377.81v-2H388.6a48.31,48.31,0,0,0-2.54-5h-9.78v-2H391V26.94h2v7.42h5.33V26.94h2v7.42H414.7v2H404.4l-2.23,5h11v2H396.63V47H412v2H396.63v3.62h17.9v2H398a50,50,0,0,0,17.07,7.77L414,64.14A51.83,51.83,0,0,1,396.63,56ZM383.71,28.12a23.56,23.56,0,0,1,2.92,4.8l-1.75,1A26.37,26.37,0,0,0,382,29.21ZM400,41.35l1.7-3.45.66-1.53h-14c.92,1.7,1.79,3.41,2.45,5ZM409.86,29a32.42,32.42,0,0,1-3.41,5l-1.7-1.22a25.73,25.73,0,0,0,3.41-4.94Z"/><path class="cls-3" d="M438.94,34.36l1.88.7c-1.44,4.28-2.62,7.47-3.54,9.52h7.16v2H422v-2h13.1A89.75,89.75,0,0,0,438.94,34.36ZM432,27.77h2v3h9.21v2h-20v-2H432Zm-5.15,39h-2V51.56c0-.48.22-.65.66-.65h15.63c.48,0,.74.17.74.65V66.8h-2v-3h-13Zm.26-32.26a61.91,61.91,0,0,1,2.8,8.38L428,43.4a64.8,64.8,0,0,0-2.75-8.3ZM439.9,61.82V53.13c0-.17-.09-.26-.31-.26H427.2c-.22,0-.35.09-.31.31v8.64Zm8.91-30.91c-.18,0-.27.05-.27.22V66.67h-2V29.21a.32.32,0,0,1,.35-.31h12.22L460.38,30l-4,12.84a1.09,1.09,0,0,0,0,.83,29.32,29.32,0,0,1,4.46,6.9c1.35,4,1.35,7.16,0,9.51a5.38,5.38,0,0,1-2.31,2.32,6.58,6.58,0,0,1-2.62.56,14.71,14.71,0,0,1-4.5-1.13l.17-2.23c2.76,1.09,4.76,1.4,5.94,1,1.92-.7,2.66-3,2.36-6.68-.52-2.57-2.4-5.89-5.59-10a.77.77,0,0,1-.17-.83l3.88-12.1Z"/></svg>