<svg id="圖層_1" data-name="圖層 1" xmlns="http://www.w3.org/2000/svg" viewBox="0 0 566 86"><defs><style>.cls-1{fill:#cb6519;}.cls-2{fill:#0e639b;}.cls-3{fill:#201512;}</style></defs><path class="cls-1" d="M31,41.06a15.56,15.56,0,0,1,24.09-13c.39-.71.6-1.12.6-1.12S32.63,6.38,32.62,6.41C26.84,14.67,6.32,35.2,17.74,50a10.89,10.89,0,0,0,3.53,2.86,16.07,16.07,0,0,0,9.39,1.19,20.5,20.5,0,0,0,5.06-1.84A15.52,15.52,0,0,1,31,41.06Z"/><path class="cls-2" d="M87.76,45.36l-5.31-4.85L86.13,33l-5.31-4.86-3.68,7.49-5.3-4.86-3.68,7.49,5.3,4.86h0l-3.68,7.49-5.31-4.87,3.68-7.49L57.74,28.74l-4.81,8.88C46.64,49.31,37.59,55.35,29.78,56.33a17,17,0,0,1-13.59-4.16A37.57,37.57,0,0,0,28.42,69.48c17.16,13.13,41.48,10.07,51-7.63Z"/><polygon class="cls-2" points="96.76 28.66 92.89 36.53 87.32 31.43 91.18 23.55 96.76 28.66"/><polygon class="cls-2" points="71.27 18.98 67.23 27.23 61.38 21.87 65.43 13.63 71.27 18.98"/><polygon class="cls-2" points="81.16 16.09 77.11 24.33 71.26 18.98 75.31 10.74 81.16 16.09"/><path class="cls-3" d="M118.67,28.33h-3V25.91h17v2.42H129.1V70.72h-2.42V61.45l-10.11,4.21-1.06-2.21,3.16-1.21Zm8,8.27V28.33h-5.59V36.6Zm0,11.32V39h-5.59v8.9Zm0,10.79V50.34h-5.59V61.29l.85-.36Zm5.68-12.64-.58-2.37,2.8-.31,3.79-5a38.92,38.92,0,0,0-6.8-6.74L133,29.7a6.94,6.94,0,0,1,1.89,1.52,96,96,0,0,0,4-8.74l2.16,1.11a82.09,82.09,0,0,1-4.53,9.27l3.22,3.47a39.49,39.49,0,0,0,3.42-7.53l2.32.63c-1.16,4.32-3.8,8.85-7.8,13.59l6.22-.74-1.37-2.89,2.26-1a33.4,33.4,0,0,1,3,7.42l-2.32.79-.68-2Zm2.95,16.33a2,2,0,0,1-1-.74,5.5,5.5,0,0,1-.63-3V49.76h2.37v9.8l.32.26,5.95-.84V48.65h2.42V61.24a7.57,7.57,0,0,1-.47,2.58c-1.06,2.79-4.11,5.11-9,6.9l-1.21-2.26a16.44,16.44,0,0,0,6.16-2.9,5.63,5.63,0,0,0,2-4.11A65.37,65.37,0,0,1,135.31,62.4Zm13.22-17.59-.74-2.32,2.53-.37,3.11-4a38,38,0,0,0-6.8-6.16l1.32-2a10.73,10.73,0,0,1,2,1.47,70.75,70.75,0,0,0,4.43-8.32l2.1,1.21A76.4,76.4,0,0,1,151.59,33l3.26,3.11a34.67,34.67,0,0,0,4-8.11l2.32.68c-1.11,3.9-3.69,8.27-7.59,12.91l6.22-1.06-.69-2.05,2.32-.74a38.6,38.6,0,0,1,2.16,7.43l-2.37.63-.69-2.9Zm10.38,15.43c.36,0,.52-.16.52-.47V49.29h2.42V62c0,.42-.21.63-.68.63H152.8v7.85h-2.43V48.65h2.43V60.24Z"/><path class="cls-3" d="M173.55,39.65l-1.47-2.26a66.1,66.1,0,0,0,23-14.91H197c7.53,6.74,15.11,11.53,22.59,14.27L218.1,39a57.28,57.28,0,0,1-11.58-6A70.35,70.35,0,0,1,196,25.12C189.09,32,181.56,36.91,173.55,39.65Zm8.11,30.54h-2.42V48.92c0-.53.26-.79.84-.79h32c.58,0,.89.26.89.79V70.19h-2.42V66.56H181.66Zm29.39-32v2.42H180.34V38.23Zm-.53,26V50.87c0-.21-.11-.32-.37-.32H182c-.26,0-.42.11-.37.37V64.19Z"/><path class="cls-3" d="M250.23,36.17V38.6H228V36.17h9.79V30H229V27.54h8.74V23.11h2.42v4.43h8.64V30h-8.64v6.21ZM228.17,61.66V59.24h9.58V52.6H228V50.18h13.43a78,78,0,0,0,4.37-9.53l2.15,1.05-3.84,8.48h6V52.6h-9.85v6.64H250v2.42h-9.85v8.22h-2.42V61.66ZM231.64,41a39.05,39.05,0,0,1,3.9,7.11l-2.16,1.1a48.19,48.19,0,0,0-3.84-6.95Zm23.12,1.89V70.19h-2.42V25c0-.32.16-.48.53-.48H272.4a1.66,1.66,0,0,1,1.11.21c.26.16.37.64.37,1.43-.37,6.79-1.21,10.48-2.32,11.11-2.05,1.31-5.58,1.05-10.53-.79l.42-2.58a22.61,22.61,0,0,0,4.79,1.37c1.84.26,3,.15,3.53-.32a6.92,6.92,0,0,0,1-2.63c.58-3.22.74-5,.47-5.32l-.26-.05H255.13c-.26,0-.37.05-.37.31V40.49h17.33l1.42.84c-.84,8.22-3,14.91-6.37,20l.89.89a38.67,38.67,0,0,0,7.11,6.43l-1.95,1.52a53.39,53.39,0,0,1-7.53-6.74,43,43,0,0,1-7.48,6.8l-1.94-1.58a34.06,34.06,0,0,0,7.89-7.06,29.66,29.66,0,0,1-6.21-18.7ZM265.61,59.4c2.74-3.95,4.53-9.48,5.37-16.49H260.29a28.08,28.08,0,0,0,2.79,12.59A33,33,0,0,0,265.61,59.4Z"/><path class="cls-3" d="M285.15,46.71,283.31,45a53.27,53.27,0,0,0,5.95-22.33l2.42.32A62.31,62.31,0,0,1,290,34.38V70.3h-2.43V41.7A35.48,35.48,0,0,1,285.15,46.71Zm15.91-3.37h-6.32l-.9-1.27,6.22-14.59h-6V25.06h8.11l1,1.37L296.9,40.91h6c.53,0,.79.21.79.74v.11a49.23,49.23,0,0,1-3.63,18.32l.21.32c2.58,3.63,7.05,5.53,13.27,5.63h17.32l-.63,2.43H314.38a49.63,49.63,0,0,1-6.79-.69,12.49,12.49,0,0,1-8.53-5.58,51.33,51.33,0,0,1-4.53,7.53l-2.22-1.84a52.64,52.64,0,0,0,5.06-8.11c-1.58-2.37-3.11-6.27-4.42-11.38l2.21-.53a54.88,54.88,0,0,0,3.26,9.43A39.82,39.82,0,0,0,301.06,43.34Zm4.53,14.79V55.71h10V51.13h-8.95V48.76h8.95V43.55h-9.11V41.12h9.11V35.91h-10V33.49h10V28.33h-9.11V25.91h9.11V23.32H318v2.59h9.48c.53,0,.79.26.79.73v6.85h1.63v2.42h-1.63v6.85a.7.7,0,0,1-.79.79H318v5.21h10.48v2.37H318v4.58h11.48v2.42H318v6h-2.42v-6ZM318,33.49h7.85V28.75c0-.26-.16-.42-.47-.42H318Zm0,7.63h7.38a.41.41,0,0,0,.47-.47V35.91H318Z"/><path class="cls-3" d="M366.2,67.09a2.81,2.81,0,0,1-1.26,2.42c-1.53,1-4.63.89-9.21-.48V66.51c3.68,1.26,6.26,1.58,7.47.94a1.25,1.25,0,0,0,.58-1V49.92H348.09V47.5h15.69V42.7h-19v4.85c0,8.42-1.31,15.64-3.84,21.59l-2.32-.79a46,46,0,0,0,3-10.43,77.94,77.94,0,0,0,.74-11.16V27c0-.42.21-.63.69-.63h19.48V21.9H365v4.43h21.49v2.42H366.2v4.37h15.7c.52,0,.79.26.79.68v6.48h4.9V42.7h-4.9v6.43a.7.7,0,0,1-.79.79H366.78a43,43,0,0,0,4,6.48c3.31,4.42,8.47,7.84,15.43,10.32l-1.37,2.1-6-2.52Q371.51,62.58,366.2,54Zm-2.42-38.34H345.14a.28.28,0,0,0-.32.31V40.28h19V35.54H348.51V33.12h15.27ZM360.41,60.4a84.9,84.9,0,0,1-13.16,7.05l-1.37-2a62,62,0,0,0,13-6.9Zm-10.32-8.85a39.67,39.67,0,0,1,5.27,4.85L353.57,58a63,63,0,0,0-5.11-4.69ZM366.2,40.28h14.07V35.91c0-.21-.16-.37-.48-.37H366.2Zm0,7.22h13.59a.42.42,0,0,0,.48-.48V42.7H366.2Zm18.38,5a42.25,42.25,0,0,1-7.37,5.74l-1.42-2A45,45,0,0,0,383,50.6Z"/><path class="cls-3" d="M398.6,47.23v-2h19.59V40.44H400c-.21,0-.32-.11-.32-.37v-7.9a.28.28,0,0,1,.32-.31h18.22V27.38H395.44V25.17h22.75V22.69h2.42v2.48H442v2.21H420.61v4.48H437.3c.27,0,.37.1.37.31v7.9c0,.26-.1.37-.37.37H420.61v4.79h16.54c.47,0,.73.21.73.69v6.32h4.74v2h-4.74V60.5a.66.66,0,0,1-.73.74H420.61v5.21a2.68,2.68,0,0,1-1.32,2.43c-2.05,1.42-6.1,1.26-12.06-.42V65.93c5.16,1.42,8.64,1.74,10.38.89a1.17,1.17,0,0,0,.58-.94V61.24H399v-2h19.17v-5h-23v-2h23v-5Zm19.59-13.37H402.13v4.58h16.06Zm2.42,4.58h14.53l.11-.16V34l-.11-.1H420.61Zm0,13.8h14.85V47.6c0-.26-.16-.37-.42-.37H420.61Zm0,7H435a.39.39,0,0,0,.42-.42V54.24H420.61Z"/><path class="cls-3" d="M476,70.72h-2.43V57.24c-7.69,5.32-14.74,8.74-21.11,9.95l-1.06-2.26A52.69,52.69,0,0,0,472,55.45H452.32V53.08h21.27V48.71h-18.8V46.29h18.8V41.91H453.32V39.49h13a60.09,60.09,0,0,0-3.06-6H451.48V31.07h17.79v-9h2.43v9h6.42v-9h2.42v9h17.28v2.42H485.39l-2.69,6H496v2.42H476v4.38h18.53v2.42H476v4.37h21.59v2.37h-20c5.42,4,12.32,7.16,20.59,9.37L496.92,67A62.46,62.46,0,0,1,476,57.13ZM460.43,23.54A28.42,28.42,0,0,1,464,29.33l-2.11,1.26a32.47,32.47,0,0,0-3.48-5.74Zm19.59,16,2.05-4.16.79-1.84H466c1.11,2,2.16,4.11,2.95,6Zm12-15a38,38,0,0,1-4.11,6.05l-2.05-1.47a31.37,31.37,0,0,0,4.11-5.95Z"/><path class="cls-3" d="M527.05,31.07l2.27.84c-1.74,5.16-3.16,9-4.27,11.48h8.64v2.42h-27V43.39h15.8A110.24,110.24,0,0,0,527.05,31.07Zm-8.32-8h2.42v3.64h11.11v2.37H508.15V26.75h10.58Zm-6.21,47.08h-2.43V51.81c0-.57.27-.79.79-.79h18.86c.58,0,.89.22.89.79V70.19h-2.42V66.56H512.52Zm.31-38.91a72.2,72.2,0,0,1,3.37,10.11l-2.32.58a77.82,77.82,0,0,0-3.31-10Zm15.38,32.91V53.71c0-.21-.11-.32-.37-.32h-15c-.26,0-.42.11-.36.37V64.19ZM539,26.91c-.21,0-.31.05-.31.26V70h-2.43V24.85a.38.38,0,0,1,.42-.37h14.75l1.53,1.27-4.85,15.48a1.39,1.39,0,0,0,.05,1,35.72,35.72,0,0,1,5.38,8.32c1.63,4.79,1.63,8.64,0,11.48a6.47,6.47,0,0,1-2.79,2.79,8.14,8.14,0,0,1-3.16.69,18,18,0,0,1-5.43-1.37l.22-2.69c3.31,1.32,5.73,1.69,7.16,1.16,2.31-.84,3.21-3.58,2.84-8.06-.63-3.1-2.9-7.11-6.74-12.06a.93.93,0,0,1-.21-1l4.69-14.58Z"/></svg>